<svg id="Layer_1" data-name="Layer 1" xmlns="http://www.w3.org/2000/svg" viewBox="0 0 180.28 180.28"><defs><style>.cls-1{fill:#4c76be;}.cls-2{fill:#fff;fill-rule:evenodd;}</style></defs><title>FB Flat Circle (Color_SVG)</title><circle class="cls-1" cx="90.14" cy="90.14" r="90.14"/><path class="cls-2" d="M119,115c2.41-.08,4.82,0,7.24,0h1V102.41c-1.29-.13-2.63-0.31-4-0.38-2.47-.11-4.95-0.23-7.42-0.18a18.19,18.19,0,0,0-10.48,3.24A15.68,15.68,0,0,0,99,115.56a36.5,36.5,0,0,0-.44,5.38c-0.07,2.81,0,5.63,0,8.44v1.06h-12v14H98.51v35.21h14.58V144.5H125c0.61-4.66,1.2-9.27,1.83-14.07h-2.67c-3.38,0-11.14,0-11.14,0s0-6.94.12-10C113.22,116.35,115.67,115.09,119,115Z" transform="translate(-16.75 -50.45)"/></svg>