<svg id="Layer_1" data-name="Layer 1" xmlns="http://www.w3.org/2000/svg" viewBox="0 0 180.28 180.28"><defs><style>.cls-1{fill:#fc5345;}.cls-2{fill:#fff;}</style></defs><title>Google + Flat Circle (Color_SVG)</title><circle class="cls-1" cx="90.14" cy="90.14" r="90.14"/><path class="cls-2" d="M471.36,135c0,0.19,0,.34,0,0.49,0,3.72,0,11.77,0,11.77h16.34c0,1.21-1.44,6.08-6,9.18a17.49,17.49,0,0,1-8.87,2.85,17.87,17.87,0,0,1-6.62-.77,18.37,18.37,0,0,1-12.58-15.86,17.47,17.47,0,0,1,.37-5.54,18,18,0,0,1,20.07-14,16.45,16.45,0,0,1,9,4.32l8.87-8.88a37.33,37.33,0,0,0-5.41-4A29.07,29.07,0,0,0,472,110.63c-1,0-1.95,0-2.92.09a23.85,23.85,0,0,0-5,.78,30.57,30.57,0,0,0-23.12,27.87,28.84,28.84,0,0,0,.64,8.22,30.19,30.19,0,0,0,11.94,18.24,29.8,29.8,0,0,0,16.29,5.77,32.41,32.41,0,0,0,10-1,26.56,26.56,0,0,0,15-9.87c5.53-7.35,6.86-16.78,5.23-25.73h-28.7Z" transform="translate(-392.38 -50.45)"/><polygon class="cls-2" points="144.58 84.96 134.25 84.96 134.25 74.62 134.25 74.31 133.94 74.31 126.22 74.31 125.92 74.31 125.92 74.62 125.92 84.96 115.58 84.96 115.28 84.96 115.28 85.26 115.28 92.98 115.28 93.29 115.58 93.29 125.92 93.29 125.92 103.63 125.92 103.93 126.22 103.93 133.94 103.93 134.25 103.93 134.25 103.63 134.25 93.29 144.58 93.29 144.89 93.29 144.89 92.98 144.89 85.26 144.89 84.96 144.58 84.96"/></svg>