<svg id="Layer_1" data-name="Layer 1" xmlns="http://www.w3.org/2000/svg" xmlns:xlink="http://www.w3.org/1999/xlink" viewBox="0 0 180.28 180.28"><defs><style>.cls-1{fill:none;}.cls-2{fill:#7c5641;}.cls-3{clip-path:url(#clip-path);}.cls-4{fill:#fff;}</style><clipPath id="clip-path" transform="translate(-204.56 -277.66)"><rect class="cls-1" x="257.18" y="331.33" width="71.97" height="71.97"/></clipPath></defs><title>Instagram Flat Circle (Color_SVG)</title><circle class="cls-2" cx="90.14" cy="90.14" r="90.14"/><g class="cls-3"><path class="cls-4" d="M293.17,337.81c9.61,0,10.75,0,14.54.21a19.91,19.91,0,0,1,6.68,1.24,11.92,11.92,0,0,1,6.83,6.83,19.91,19.91,0,0,1,1.24,6.68c0.17,3.79.21,4.93,0.21,14.54s0,10.75-.21,14.54a19.91,19.91,0,0,1-1.24,6.68,11.92,11.92,0,0,1-6.83,6.83,19.91,19.91,0,0,1-6.68,1.24c-3.79.17-4.93,0.21-14.54,0.21s-10.75,0-14.54-.21a19.91,19.91,0,0,1-6.68-1.24,11.92,11.92,0,0,1-6.83-6.83,19.91,19.91,0,0,1-1.24-6.68c-0.17-3.79-.21-4.93-0.21-14.54s0-10.75.21-14.54a19.91,19.91,0,0,1,1.24-6.68,11.92,11.92,0,0,1,6.83-6.83,19.91,19.91,0,0,1,6.68-1.24c3.79-.17,4.93-0.21,14.54-0.21m0-6.48c-9.77,0-11,0-14.84.22a26.42,26.42,0,0,0-8.73,1.67,18.4,18.4,0,0,0-10.52,10.52,26.41,26.41,0,0,0-1.67,8.73c-0.18,3.84-.22,5.06-0.22,14.84s0,11,.22,14.84a26.41,26.41,0,0,0,1.67,8.73,18.4,18.4,0,0,0,10.52,10.52,26.42,26.42,0,0,0,8.73,1.67c3.84,0.17,5.06.22,14.84,0.22s11,0,14.84-.22a26.42,26.42,0,0,0,8.73-1.67,18.4,18.4,0,0,0,10.52-10.52,26.41,26.41,0,0,0,1.67-8.73c0.18-3.84.22-5.06,0.22-14.84s0-11-.22-14.84a26.41,26.41,0,0,0-1.67-8.73,18.4,18.4,0,0,0-10.52-10.52,26.42,26.42,0,0,0-8.73-1.67c-3.84-.18-5.06-0.22-14.84-0.22" transform="translate(-204.56 -277.66)"/><path class="cls-4" d="M293.17,348.84a18.48,18.48,0,1,0,18.48,18.48,18.48,18.48,0,0,0-18.48-18.48m0,30.47a12,12,0,1,1,12-12,12,12,0,0,1-12,12" transform="translate(-204.56 -277.66)"/><path class="cls-4" d="M316.69,348.11a4.32,4.32,0,1,1-4.32-4.32,4.32,4.32,0,0,1,4.32,4.32" transform="translate(-204.56 -277.66)"/></g></svg>