<svg id="Layer_1" data-name="Layer 1" xmlns="http://www.w3.org/2000/svg" viewBox="0 0 180.28 180.28"><defs><style>.cls-1{fill:#00c7ff;}.cls-2{fill:#fff;fill-rule:evenodd;}</style></defs><title>Twitter Flat Circle (Color_SVG)</title><circle class="cls-1" cx="90.14" cy="90.14" r="90.14"/><path class="cls-2" d="M281.3,158.88a16.38,16.38,0,0,1-15.2-11.34,16.21,16.21,0,0,0,7-.21,1.43,1.43,0,0,0,.24-0.11,16.32,16.32,0,0,1-10.61-7.5,15.86,15.86,0,0,1-2.39-8.69,16.1,16.1,0,0,0,7.27,2,16.42,16.42,0,0,1-6.72-9.91,16.18,16.18,0,0,1,1.75-11.83,46.75,46.75,0,0,0,33.7,17.07c-0.1-.65-0.2-1.22-0.26-1.79A16.34,16.34,0,0,1,323.83,113a0.83,0.83,0,0,0,.87.26,32.9,32.9,0,0,0,9.5-3.66l0.22-.11h0.11a16.72,16.72,0,0,1-7,8.89,31.33,31.33,0,0,0,9.1-2.45L336.7,116c-0.62.82-1.23,1.65-1.88,2.45a32,32,0,0,1-5.94,5.64,0.55,0.55,0,0,0-.27.51,45.26,45.26,0,0,1-.3,7.26,48.06,48.06,0,0,1-4.21,14.55,47,47,0,0,1-8.83,12.88,43.68,43.68,0,0,1-22.45,12.51,48.76,48.76,0,0,1-9.1,1.08,46.14,46.14,0,0,1-26.15-7l-0.38-.25a33,33,0,0,0,16.35-2.25A32.43,32.43,0,0,0,281.3,158.88Z" transform="translate(-204.56 -50.45)"/></svg>