<svg id="Layer_1" data-name="Layer 1" xmlns="http://www.w3.org/2000/svg" viewBox="0 0 180.28 180.28"><defs><style>.cls-1{fill:#fd3832;}.cls-2{fill:#fff;fill-rule:evenodd;}</style></defs><title>YouTube Flat Circle (Color_SVG)</title><circle class="cls-1" cx="90.14" cy="90.14" r="90.14"/><path class="cls-2" d="M74.94,392.68a9.36,9.36,0,0,1-6.18-6c-2.68-7.36-3.47-38.13,1.68-44.18a10,10,0,0,1,6.72-3.58c13.88-1.49,56.77-1.28,61.71.5a9.66,9.66,0,0,1,6.07,5.84c2.93,7.6,3,35.27-.38,42.59a9.4,9.4,0,0,1-4.35,4.39C135,395,81.75,394.92,74.94,392.68Zm22-14.42,25-13-25-13v26Z" transform="translate(-16.75 -275.98)"/></svg>